<svg id="Calque_1" data-name="Calque 1" xmlns="http://www.w3.org/2000/svg" viewBox="0 0 2005.07 1603.49"><defs><style>.cls-1{fill:none;stroke:#cfd6de;stroke-linecap:round;stroke-miterlimit:10;stroke-width:5px;opacity:.05}</style></defs><path class="cls-1" d="M913.22 542.72c-170.4 31.17-298.7-15-158.79-63.73 75.72-30 4.43-73.66 6.86-130.67-3.06-47.49 91.87-101.92 157.09-104.9 142.9 16.46-54.06 128.82-118.35-15C780 183.87 698 172 578.43 176.7c-342 33.68-42.89 74.3 49.83 23.69C730.34 166.16 762.88 61.05 608.5.5m390.82 595.11s93.31-60.44 107.61-85.2m538.18-205.1c-82.55 94.59-288.36 173.9-326.32 182.46-206 66.49 79.46-76-38.75-60.47-81.86 1 34.61-51.14-190.39-13.39m667.5 159.3s-96.83 53.32-172 73.46c-106.86 39.91-166.15 59-268.7 109-173.64 85.18-36.8 55 48.08-12.88 101.21-109.2-104.53-47.63 17.61-144.79 47.43-51.36 108.63-69.37 126-46.65 8.64 16.24-82.53 28.56-121.27-31.92C1357 492 1383.33 332 1584.9 224.83M0 724.87c82.29-106.73 165.82-139.31 116.11-21-28.4 76.31 51.78 52.57 92.52 92.54C246 826 222.9 932.91 181.47 983.37 73.62 1078.56 121.91 857 271.8 905.45c46.49 15 110.2-38.12 186.72-130.06 203.83-276.72-26.51-81.6-50.94 21.18-50.27 115.79-.85 203.82 222.22 50.39 43.36-30.28 173.54-135 232.07-147.11m-819.5 115.2S24.84 924.83 33.68 952m1127.98-722c-106.73-82.3-139.31-165.83-21-116.12 76.3 28.41 52.56-51.77 92.53-92.51C1262.74-16 1369.7 7.11 1420.17 48.53c85.67 97.08-85.27 67.66-85-48.5m-83.38 187.6s109.78 17.53 137 8.69m-46.25 1282.43c-144.94 94.87-281.09 102.15-171.07 2.9 58.15-57-24.52-69.6-44.4-123.09-21.25-42.58 45.1-129.58 104-157.65 138.09-40.3.19 139.71-114.88 32.13-35.73-33.31-116-12.35-224.31 38.33-302.14 163.8-10.69 85.13 55.12 2.49 94.73-83.43 87.42-184.12-179.72-140.09-52.12 9-214.48 48.44-272.59 34.49m863.81 175.24s50.59-99 50.59-127.59m590.91 6.77c-68.09 82.27-109.17 128.49-170.76 219.81-107.79 160.59-4.4 66 35.19-35.2 33-145.19-114.38 11-57.19-134.19 15.4-68.19 59.39-114.39 85.79-103.39 15.6 9.75-57.19 66-121 33-39.6-8.8-96.79-160.59 24.19-354.18 57.2-79.2 105.59-103.39 92.39 39.6-24.2 123.19-162.78 294.78-191.38 321.18-145.18 160.59 30.8-105.6-63.79-33-70.39 41.8 4.4-61.6-171.58 83.59M909.93 824.63c80.35-153.46 195.69-226.17 148-85.88-23 78.1 55.32 48.82 98.75 85.85 39.3 26.82 23.75 135.13-14.05 188.37-100.95 102.47-68.24-121.91 84.67-84m-283.58-20.71s-9.83 110.74.88 137.25M374.48 1408.7c-94.83 181.12-231 266.93-174.65 101.36 27.16-92.18-65.29-57.63-116.55-101.32-46.39-31.67-28-159.5 16.58-222.33C219 1065.47 180.4 1330.29-.07 1285.59M380.6 1276s11.6-130.7-1-162m955-78.09q102.72-7.65 127.28-88c24.57-80.36 176.58-50.68 230.19-14.37" transform="translate(2.57 2.47)"/><path class="cls-1" d="M239.6 544.91q102.72-7.65 127.28-88c24.57-80.36 176.58-50.68 230.19-14.37M866 1555.56q-101.85 15.32-143.62-57.6c-41.77-72.91-183.41-10.28-227.64 37m1229.4-1211.03c48.13 47 63.8 106.41 41.46 122.5-15.86 7.87-25.24-80.18 34-115.83 27.2-28 114.71-12.91 175 68.12 56.14 75.44 8.6 145.13-79.08 55.75-84.63-86.27-56.38-151.74-63.59-188.51-58.38-200 71 78.53 59.24-35.64m58.69-163.95S1856.17 36.32 1797.22 0M219.5.5c19 56 34 85 0 120-24.17 24.88-117.24-31-101.65-40.79 26.4-11 70.39 35.2 85.79 103.39 57.2 145.19-90.19-11-57.19 134.19 39.59 101.2 143 195.79 35.19 35.2C120.06 261.17 79 215 10.88 132.68m366.54-46.37c-94.59-72.6 81.39 193.59-63.79 33C299.76 106.5 260 59.54 220 .5" transform="translate(2.57 2.47)"/></svg>