<svg xmlns="http://www.w3.org/2000/svg" width="422.652" height="353.5" viewBox="0 0 422.652 353.5">
  <g id="Group_655" data-name="Group 655" transform="translate(-1220 -7299.5)">
    <g id="Ellipse_660" data-name="Ellipse 660" transform="translate(1500 7388)" fill="none" stroke="#1baaa0" stroke-width="9" opacity="0.049">
      <circle cx="19" cy="19" r="19" stroke="none"/>
      <circle cx="19" cy="19" r="14.5" fill="none"/>
    </g>
    <g id="Path_16706" data-name="Path 16706" transform="translate(1462 7315)" fill="none" opacity="0.187">
      <path d="M19,0A19,19,0,1,1,0,19,19,19,0,0,1,19,0Z" stroke="none"/>
      <path d="M 19 9 C 13.48598480224609 9 9 13.48598480224609 9 19 C 9 24.51401519775391 13.48598480224609 29 19 29 C 24.51401519775391 29 29 24.51401519775391 29 19 C 29 13.48598480224609 24.51401519775391 9 19 9 M 19 0 C 29.4934139251709 0 38 8.506586074829102 38 19 C 38 29.4934139251709 29.4934139251709 38 19 38 C 8.506586074829102 38 0 29.4934139251709 0 19 C 0 8.506586074829102 8.506586074829102 0 19 0 Z" stroke="none" fill="#1baaa0"/>
    </g>
    <g id="Ellipse_662" data-name="Ellipse 662" transform="translate(1576 7615)" fill="none" stroke="#202b2a" stroke-width="9" opacity="0.055">
      <circle cx="19" cy="19" r="19" stroke="none"/>
      <circle cx="19" cy="19" r="14.5" fill="none"/>
    </g>
    <g id="Ellipse_663" data-name="Ellipse 663" transform="translate(1538 7553)" fill="none" stroke="#1baaa0" stroke-width="9" opacity="0.068">
      <circle cx="19" cy="19" r="19" stroke="none"/>
      <circle cx="19" cy="19" r="14.5" fill="none"/>
    </g>
    <g id="Ellipse_664" data-name="Ellipse 664" transform="translate(1220 7379)" fill="none" stroke="#1baaa0" stroke-width="9" opacity="0.106">
      <circle cx="19" cy="19" r="19" stroke="none"/>
      <circle cx="19" cy="19" r="14.5" fill="none"/>
    </g>
    <g id="Ellipse_665" data-name="Ellipse 665" transform="translate(1310 7615)" fill="none" stroke="#2f3938" stroke-width="9" opacity="0.045">
      <circle cx="19" cy="19" r="19" stroke="none"/>
      <circle cx="19" cy="19" r="14.5" fill="none"/>
    </g>
    <g id="Group_490" data-name="Group 490" transform="translate(1317.9 12486.641) rotate(-164.991)" opacity="0.111">
      <path id="Path_16323" data-name="Path 16323" d="M6412.371,4860.282c1.684-.875,7.159-2.162,9.967,6.262s2.327,11.692-3.289,8.884-8.585-6.23-9.536-9.318S6410.687,4861.156,6412.371,4860.282Z" transform="translate(-5149.364 112.262)" fill="#1daba1"/>
      <path id="Path_16324" data-name="Path 16324" d="M6412.371,4860.282c1.684-.875,7.159-2.162,9.967,6.262s2.327,11.692-3.289,8.884-8.585-6.23-9.536-9.318S6410.687,4861.156,6412.371,4860.282Z" transform="translate(-5103.588 -121.458)" fill="#1daba1"/>
      <path id="Path_16326" data-name="Path 16326" d="M6412.371,4860.282c1.684-.875,7.159-2.162,9.967,6.262s2.327,11.692-3.289,8.884-8.585-6.23-9.536-9.318S6410.687,4861.156,6412.371,4860.282Z" transform="translate(-5095.934 -22.459)" fill="#1daba1"/>
      <path id="Path_16330" data-name="Path 16330" d="M6412.371,4860.282c1.684-.875,7.159-2.162,9.967,6.262s2.327,11.692-3.289,8.884-8.585-6.23-9.536-9.318S6410.687,4861.156,6412.371,4860.282Z" transform="translate(-5418.253 -57.329)" fill="#1daba1"/>
      <path id="Path_16331" data-name="Path 16331" d="M6412.371,4860.282c1.684-.875,7.159-2.162,9.967,6.262s2.327,11.692-3.289,8.884-8.585-6.23-9.536-9.318S6410.687,4861.156,6412.371,4860.282Z" transform="translate(-5054.234 117.153)" fill="#1daba1"/>
      <path id="Path_16334" data-name="Path 16334" d="M6412.371,4860.282c1.684-.875,7.159-2.162,9.967,6.262s2.327,11.692-3.289,8.884-8.585-6.23-9.536-9.318S6410.687,4861.156,6412.371,4860.282Z" transform="translate(-5423.385 11.711)" fill="#1daba1"/>
      <path id="Path_16335" data-name="Path 16335" d="M6412.371,4860.282c1.684-.875,7.159-2.162,9.967,6.262s2.327,11.692-3.289,8.884-8.585-6.23-9.536-9.318S6410.687,4861.156,6412.371,4860.282Z" transform="translate(-5282.639 -124.018)" fill="#1daba1"/>
      <path id="Path_16336" data-name="Path 16336" d="M6412.371,4860.282c1.684-.875,7.159-2.162,9.967,6.262s2.327,11.692-3.289,8.884-8.585-6.23-9.536-9.318S6410.687,4861.156,6412.371,4860.282Z" transform="translate(-5356.59 120.734)" fill="#1daba1"/>
    </g>
    <g id="Group_624" data-name="Group 624" transform="translate(1566.652 7299.5)" opacity="0.082">
      <path id="Path_16592" data-name="Path 16592" d="M73.515,27.322c1.593-3.369,2.677-6.27,2.457-7.136s-1.736.308-5.412,5.026c-2.243,2.733-4.825,6.123-6.867,8.8L61,37.563q.641-1.459,1.283-2.922c1.249-2.854,2.491-5.724,3.687-8.634s2.351-5.857,3.384-8.911c.513-1.53,1-3.085,1.408-4.713.205-.814.392-1.648.544-2.519l.059-.351.082-.558c.046-.377.1-.766.121-1.145a13.283,13.283,0,0,0,0-2.23A8.233,8.233,0,0,0,71.145,3.6,6.177,6.177,0,0,0,70.3,2,5.157,5.157,0,0,0,69.013.781C68.887.7,68.757.617,68.627.538l-.206-.1L68.37.412c-.022,0-.036-.013-.055-.018l-.1-.047A4.214,4.214,0,0,0,67.341.08a5.135,5.135,0,0,0-3.414.6,12.67,12.67,0,0,0-3.305,2.781c-.131.14-.256.287-.381.434l-.188.22-.152.18-.4.5q-.4.5-.77,1c-.5.665-.973,1.331-1.432,2-.918,1.336-1.781,2.679-2.618,4.027-1.672,2.7-3.244,5.412-4.787,8.133-2.606,4.6-5.115,9.224-7.653,13.786.661-1.928,1.324-3.863,1.97-5.82q.618-1.872,1.208-3.777l.437-1.455q.274-.931.525-1.861c.335-1.238.627-2.464.847-3.631a18.12,18.12,0,0,0,.343-3.172,8.9,8.9,0,0,0-.083-1.262,6.415,6.415,0,0,0-.237-1.019,4.758,4.758,0,0,0-.812-1.522,4.282,4.282,0,0,0-.629-.631,4.187,4.187,0,0,0-.99-.592,4.961,4.961,0,0,0-1.151-.315,4.727,4.727,0,0,0-1-.033A5.146,5.146,0,0,0,40.89,9.1a6.917,6.917,0,0,0-.9.5,9.085,9.085,0,0,0-.937.73,14.216,14.216,0,0,0-1.964,2.244,39.832,39.832,0,0,0-2.975,4.992l-.346.68-.319.638L33.1,19.6l-.675,1.427c-.884,1.9-1.712,3.807-2.519,5.709s-1.589,3.8-2.364,5.7L26.2,35.712a.129.129,0,0,1-.019.036c-.009-.008,0-.027,0-.039l.269-1.533c.321-1.821.644-3.651.952-5.5q.231-1.385.446-2.786l.156-1.061c.059-.392.12-.864.181-1.319.12-.911.226-1.82.3-2.706s.128-1.751.135-2.564c.009-.212,0-.4-.009-.59l-.021-.575c-.013-.183-.036-.349-.053-.525l-.028-.26-.014-.13-.023-.115a7.037,7.037,0,0,0-.2-.877c-.042-.129-.077-.274-.125-.389l-.144-.345a4.69,4.69,0,0,0-.7-1.1l-.206-.218-.223-.2a2.422,2.422,0,0,0-.543-.357c-.211-.1-.461-.249-.749-.372a4.888,4.888,0,0,0-.792-.174,3.963,3.963,0,0,0-1.237.063,4.6,4.6,0,0,0-1.226.456,6.553,6.553,0,0,0-1.361,1.018,13.248,13.248,0,0,0-1.451,1.669,44.635,44.635,0,0,0-2.845,4.456L16,20.88l-.463.84-.671,1.246q-.664,1.246-1.305,2.491c-.857,1.661-1.693,3.322-2.522,4.979Q10.3,31.922,9.559,33.4q.739-2.886,1.521-5.772,1.42-5.25,2.927-10.492a1.815,1.815,0,0,0-.112-.569c-1.75-4.114-4.6-2.778-5.894-1.631a.553.553,0,0,0-.272.368Q6.223,20.586,4.781,25.895C3.812,29.486,2.87,33.088,2,36.741,1.57,38.569,1.153,40.4.785,42.289c-.185.941-.357,1.895-.5,2.887q-.111.741-.193,1.535A16.48,16.48,0,0,0,0,48.481c.008.19.011.357.028.566a6.125,6.125,0,0,0,.1.728,3.957,3.957,0,0,0,.12.482q.047.15.1.3l.056.146c.028.066.065.143.1.212.071.143.15.283.234.417l.065.1.106.142c.074.1.153.188.236.277s.169.175.258.255c.049.044.08.073.145.124s.126.095.192.139a3.836,3.836,0,0,0,.844.437A3.587,3.587,0,0,0,3.515,53,4.014,4.014,0,0,0,3.954,53c.129-.007.242-.02.363-.038l.178-.031c.061-.012.118-.024.159-.035.091-.023.181-.05.271-.079a3.633,3.633,0,0,0,.445-.177,4.584,4.584,0,0,0,.99-.637,7.208,7.208,0,0,0,.89-.9,15.734,15.734,0,0,0,1.043-1.416c.294-.443.561-.874.817-1.3,1.015-1.7,1.892-3.365,2.76-5.034,1.722-3.33,3.348-6.65,4.994-9.942q1.233-2.467,2.482-4.9.627-1.214,1.264-2.413l.845-1.564-.485,3.052c-.3,1.8-.621,3.615-.942,5.437l-.686,3.945c-.308,1.817-.606,3.641-.848,5.4a43.856,43.856,0,0,0-.476,5.326l0,.548,0,.273.018.241.034.481a1.733,1.733,0,0,0,.026.221l.032.205c.022.134.041.28.066.405l.085.35.043.175.051.151.1.3a4.394,4.394,0,0,0,1.058,1.6,3.713,3.713,0,0,0,.344.28c.133.082.269.149.444.24s.378.208.666.332a6.931,6.931,0,0,0,.777.159,3.682,3.682,0,0,0,.97-.032,3.874,3.874,0,0,0,.835-.233,5.05,5.05,0,0,0,1.9-1.4,11.4,11.4,0,0,0,1.138-1.549c.4-.63.8-1.367,1.208-2.165.815-1.6,1.629-3.435,2.424-5.285l1.182-2.812.987-2.4,1.161-2.837c.772-1.887,1.545-3.764,2.332-5.624s1.59-3.7,2.427-5.5l.634-1.342.346-.709-.124.407c-.372,1.211-.763,2.426-1.166,3.644-.8,2.436-1.649,4.881-2.491,7.343s-1.688,4.941-2.478,7.492c-.393,1.28-.774,2.572-1.11,3.948-.167.692-.324,1.4-.446,2.2a12.86,12.86,0,0,0-.136,1.325,8.17,8.17,0,0,0,.007.853,5.42,5.42,0,0,0,.224,1.249c.017.06.043.136.072.213l.089.225c.031.075.078.172.121.255s.083.161.147.265A3.918,3.918,0,0,0,33.1,52.348a3.726,3.726,0,0,0,.813.433,4.228,4.228,0,0,0,.44.141,3.85,3.85,0,0,0,.427.079,3.455,3.455,0,0,0,.416.032c.123,0,.248,0,.371-.012L35.749,53l.153-.024q.149-.026.3-.061a4.642,4.642,0,0,0,1.449-.648l.225-.155.191-.146c.132-.1.227-.186.336-.28a10.883,10.883,0,0,0,.973-.993c.271-.311.511-.611.741-.908.9-1.182,1.644-2.32,2.368-3.464,1.433-2.282,2.739-4.559,4.028-6.839,2.95-5.237,5.77-10.48,8.679-15.636,1.454-2.576,2.925-5.131,4.445-7.622.76-1.245,1.533-2.474,2.326-3.668S63.566,10.2,64.4,9.136l.529-.657-.09.514a38.334,38.334,0,0,1-1.012,3.984C63,15.685,61.979,18.42,60.9,21.142s-2.235,5.444-3.412,8.165l-3.583,8.185c-1.2,2.747-2.4,5.5-3.527,8.373-.281.721-.556,1.453-.82,2.211s-.518,1.537-.744,2.422a11.969,11.969,0,0,0-.293,1.52,6.525,6.525,0,0,0-.046,1.115c0,.108.019.263.034.391.006.06.02.149.035.231l.049.246c.019.084.051.2.081.3l.049.151c.016.047.035.1.062.167.051.124.107.247.168.366.027.055.064.122.11.2s.088.141.135.21a3.789,3.789,0,0,0,.759.817,4.149,4.149,0,0,0,.514.341,3.631,3.631,0,0,0,.55.244c.094.033.19.063.286.09s.173.04.261.057a4.315,4.315,0,0,0,.52.061,4.015,4.015,0,0,0,.426-.007l.207-.018c.074-.008.132-.017.181-.026q.156-.029.312-.066l.154-.04.122-.038.231-.082c.077-.029.157-.061.209-.086.117-.053.238-.11.347-.167l.276-.158a7.313,7.313,0,0,0,.814-.577c.115-.092.217-.179.314-.265s.191-.171.282-.255a22.669,22.669,0,0,0,1.786-1.916c.525-.624,1.016-1.244,1.492-1.864.948-1.24,1.84-2.483,2.711-3.732l.922-1.336.751-1.108,1.479-2.223,1.437-2.524c.851-1.513,1.964-3.526,3.043-5.528,2.16-4,4.189-7.95,3.929-7.657" fill="#1baaa0"/>
    </g>
  </g>
</svg>
